<?xml version="1.0" standalone="no"?>
<!DOCTYPE svg PUBLIC "-//W3C//DTD SVG 20010904//EN"
 "http://www.w3.org/TR/2001/REC-SVG-20010904/DTD/svg10.dtd">
<svg version="1.0" xmlns="http://www.w3.org/2000/svg"
 width="1000.000000pt" height="1000.000000pt" viewBox="0 0 1000.000000 1000.000000"
 preserveAspectRatio="xMidYMid meet">
<metadata>
Created by potrace 1.11, written by Peter Selinger 2001-2013
</metadata>
<g transform="translate(0.000000,1000.000000) scale(0.100000,-0.100000)"
fill="#000000" stroke="none">
<path d="M4719 9996 c-2 -2 -49 -7 -104 -10 -55 -3 -116 -8 -135 -11 -19 -2
-57 -7 -85 -10 -51 -6 -68 -9 -145 -20 -121 -18 -136 -20 -255 -45 -55 -12
-111 -24 -125 -26 -169 -33 -497 -137 -748 -238 -974 -392 -1812 -1099 -2374
-2001 -114 -184 -236 -414 -323 -610 -14 -33 -30 -69 -36 -80 -29 -62 -132
-349 -167 -465 -71 -232 -136 -507 -157 -660 -3 -25 -10 -70 -15 -100 -6 -30
-12 -82 -15 -115 -3 -33 -8 -71 -10 -84 -27 -157 -27 -829 0 -1046 2 -16 6
-50 10 -75 3 -25 7 -63 10 -85 3 -22 7 -53 10 -70 2 -16 7 -48 11 -70 3 -22
19 -105 35 -185 151 -735 461 -1416 920 -2021 261 -343 606 -688 948 -948 427
-323 799 -524 1381 -745 219 -83 708 -200 965 -231 22 -2 60 -7 85 -10 87 -12
106 -14 205 -22 194 -16 809 -8 914 12 9 1 43 6 76 9 33 4 71 9 85 11 14 2 45
7 70 10 25 3 68 10 95 15 28 5 66 12 85 15 156 24 562 133 750 202 343 126
578 238 929 444 14 8 30 18 35 22 6 4 70 46 141 94 115 76 332 236 404 298
163 140 229 202 366 340 648 652 1099 1464 1314 2365 25 104 67 326 76 399 4
30 8 62 10 71 9 49 20 152 33 310 15 193 7 760 -13 890 -2 14 -6 50 -10 80 -3
30 -7 66 -9 80 -4 21 -21 132 -32 205 -13 92 -72 342 -119 504 -182 635 -494
1233 -919 1761 -60 74 -75 91 -190 219 -112 126 -318 324 -456 441 -36 30 -67
58 -70 61 -11 13 -261 199 -335 250 -365 250 -740 441 -1161 594 -176 64 -512
157 -684 188 -146 28 -202 37 -240 42 -25 3 -52 8 -60 10 -8 2 -42 6 -75 10
-33 3 -82 8 -110 11 -27 4 -68 8 -90 10 -53 6 -691 14 -696 10z m597 -290 c96
-7 156 -12 220 -21 17 -2 57 -7 90 -10 32 -3 66 -8 74 -10 8 -2 35 -7 60 -10
80 -11 333 -64 430 -90 373 -101 834 -287 1098 -444 29 -17 55 -31 57 -31 9 0
189 -114 300 -189 965 -652 1667 -1665 1940 -2796 29 -123 30 -129 60 -295 24
-136 30 -178 41 -280 3 -30 7 -68 9 -85 10 -71 19 -293 19 -445 0 -161 -11
-429 -19 -453 -2 -7 -6 -39 -10 -72 -9 -93 -22 -194 -31 -238 -2 -12 -6 -35
-8 -52 -6 -44 -45 -231 -63 -300 -8 -33 -16 -64 -17 -70 -6 -24 -28 -102 -35
-125 -5 -14 -17 -52 -26 -85 -30 -102 -103 -304 -157 -430 -199 -467 -478
-913 -805 -1284 -92 -104 -330 -341 -433 -432 -47 -41 -87 -76 -90 -79 -3 -3
-36 -30 -75 -61 -490 -390 -1030 -671 -1632 -849 -76 -22 -151 -43 -168 -46
-16 -2 -43 -9 -60 -14 -81 -24 -420 -84 -545 -95 -36 -4 -81 -8 -100 -10 -170
-19 -562 -25 -740 -11 -147 11 -191 15 -237 21 -24 3 -64 8 -90 11 -40 4 -222
34 -298 49 -65 12 -225 50 -320 76 -137 38 -436 137 -452 151 -7 6 -13 8 -13
5 0 -3 -62 21 -138 54 -569 249 -1038 566 -1463 989 -171 170 -230 235 -345
375 -395 483 -701 1065 -874 1664 -35 120 -81 308 -96 386 -19 107 -39 224
-48 298 -17 123 -17 131 -33 329 -13 175 -7 587 12 748 3 19 7 58 10 85 11 96
19 161 30 222 3 18 7 45 9 60 33 215 164 693 232 840 8 17 14 35 14 40 0 28
183 422 264 568 231 415 465 725 811 1071 323 324 630 555 1055 796 87 50 306
157 415 203 61 25 119 50 130 55 113 50 441 153 620 195 174 40 170 40 226 49
19 3 45 8 59 11 66 12 222 35 280 40 36 4 83 8 105 11 22 2 94 7 160 10 66 4
121 8 123 9 5 4 374 -3 468 -9z"/>
<path d="M4723 9118 c-5 -7 -8 -33 -7 -58 1 -25 5 -137 9 -250 4 -113 8 -250
10 -305 27 -814 27 -2273 0 -2666 -20 -280 -46 -462 -80 -546 -23 -57 -115
-141 -201 -183 -93 -45 -100 -48 -174 -64 -193 -43 -353 -38 -607 19 -48 11
-194 67 -278 106 -270 125 -539 181 -880 183 -98 0 -282 -11 -294 -18 -3 -2
-31 -7 -61 -10 -177 -21 -403 -109 -491 -192 -24 -23 -129 -70 -129 -59 0 3
-8 1 -17 -4 -10 -5 -34 -12 -53 -15 -19 -3 -82 -14 -140 -25 -58 -11 -121 -22
-140 -25 -19 -3 -46 -8 -60 -10 -38 -7 -101 -17 -140 -22 -36 -5 -249 -41
-292 -50 -13 -2 -36 -7 -53 -10 -32 -6 -46 -20 -38 -40 6 -16 22 -21 98 -29
33 -3 71 -8 85 -10 14 -2 52 -6 85 -10 33 -3 67 -8 75 -10 8 -2 51 -7 95 -10
44 -4 82 -8 85 -10 3 -1 41 -6 84 -10 43 -4 86 -8 95 -10 19 -3 104 -13 176
-20 28 -3 66 -7 85 -10 19 -2 76 -9 125 -15 50 -6 101 -13 115 -15 14 -2 52
-6 85 -10 33 -3 71 -7 85 -10 14 -2 46 -7 72 -10 82 -9 142 -16 168 -20 14 -2
52 -7 85 -10 33 -4 67 -8 75 -10 8 -2 42 -7 75 -11 33 -3 67 -8 77 -9 9 -2 38
-6 65 -10 56 -7 306 -44 343 -51 14 -2 52 -9 85 -14 110 -18 120 -20 185 -41
36 -11 106 -36 155 -56 126 -49 284 -113 320 -128 17 -8 98 -41 180 -76 179
-74 338 -140 620 -261 261 -112 262 -112 305 -131 19 -8 118 -51 220 -95 102
-44 291 -126 420 -182 129 -56 246 -106 259 -111 23 -9 21 -11 -35 -45 -217
-130 -322 -299 -292 -466 12 -67 50 -151 95 -210 40 -52 69 -61 82 -25 50 131
153 296 233 375 131 128 222 162 438 163 127 1 346 -7 435 -16 22 -2 81 -7
130 -10 50 -3 106 -8 125 -10 34 -4 106 -11 200 -19 72 -7 241 -24 300 -31 19
-2 60 -7 90 -10 30 -3 66 -8 80 -10 14 -2 54 -7 90 -11 36 -3 72 -7 80 -9 8
-2 44 -6 80 -10 69 -7 102 -20 298 -110 156 -71 278 -115 397 -141 17 -3 78
-8 136 -10 158 -5 268 32 353 122 84 87 89 192 19 342 -9 20 -21 42 -26 47 -4
6 -21 29 -38 53 -49 67 -81 52 -58 -29 30 -113 -1 -224 -74 -262 -52 -27 -200
-32 -283 -11 -141 37 -341 156 -565 336 -106 84 -160 131 -328 283 -139 125
-373 369 -443 462 -42 56 -93 136 -115 179 -35 72 -38 84 -38 165 0 82 2 89
34 135 18 27 54 66 80 87 68 55 253 143 531 252 135 53 269 107 299 121 285
132 446 389 442 709 -4 392 -248 795 -607 1003 -162 94 -370 149 -549 145 -22
-1 -56 -2 -76 -2 -22 -1 -39 -7 -42 -15 -3 -8 0 -54 8 -103 23 -145 25 -164
32 -273 9 -128 9 -253 0 -385 -7 -103 -8 -109 -33 -235 -60 -303 -222 -543
-437 -647 -72 -35 -176 -69 -239 -78 -23 -3 -54 -8 -68 -11 l-25 -4 0 307 c0
273 -8 476 -20 568 -2 16 -6 55 -9 85 -10 97 -16 156 -20 176 -2 11 -7 47 -11
79 -4 33 -9 69 -11 80 -2 10 -6 37 -10 60 -13 92 -58 301 -95 450 -124 484
-324 937 -563 1270 -181 253 -438 506 -661 651 -33 21 -61 42 -63 47 -2 4 -7
7 -11 7 -5 0 -47 23 -95 50 -95 54 -99 56 -113 38z m364 -530 c18 -19 22 -41
28 -128 3 -58 8 -121 10 -140 2 -19 6 -89 10 -155 4 -66 8 -136 10 -155 3 -34
14 -228 20 -385 22 -514 22 -1156 -1 -1355 -6 -54 -43 -94 -77 -85 -25 7 -70
53 -63 63 9 15 19 365 19 637 0 241 -7 552 -18 785 -7 147 -16 309 -20 365 -2
33 -7 105 -10 160 -3 55 -8 125 -11 155 -17 206 -17 211 7 236 28 30 69 31 96
2z m355 -256 c15 -25 18 -54 33 -282 24 -389 24 -398 29 -824 4 -312 2 -384
-9 -407 -22 -42 -67 -52 -104 -21 -21 17 -22 23 -26 427 -2 226 -6 442 -9 480
-2 39 -8 129 -11 200 -4 72 -8 146 -10 165 -14 141 -16 240 -5 260 24 44 87
45 112 2z m340 -640 c16 -27 18 -56 21 -307 2 -108 -7 -149 -36 -167 -21 -13
-54 -9 -77 10 -21 17 -22 25 -26 230 -3 140 -1 220 7 233 23 43 86 44 111 1z
m1765 -964 c54 -60 65 -513 18 -778 -19 -110 -31 -137 -64 -148 -56 -20 -102
32 -86 96 26 103 40 252 40 422 -1 140 -11 318 -20 343 -9 22 13 67 37 77 37
14 53 11 75 -12z m341 -178 c13 -13 22 -33 23 -53 0 -18 2 -41 5 -52 7 -35 7
-268 -1 -345 -7 -78 -18 -107 -43 -126 -23 -17 -65 -8 -85 17 -16 20 -17 33
-11 108 10 106 10 265 1 352 -6 58 -5 69 14 92 25 33 66 35 97 7z m-5655
-1388 c26 -26 25 -68 -2 -95 -17 -17 -33 -21 -79 -21 -31 1 -67 6 -80 13 -47
25 -36 101 17 119 43 15 121 6 144 -16z m1307 -256 c8 -15 10 -72 8 -180 -3
-153 -4 -158 -27 -175 -14 -10 -32 -17 -40 -16 -9 2 -19 4 -23 4 -5 1 -17 10
-28 21 -18 18 -20 33 -20 168 0 81 3 158 7 171 8 30 59 53 89 39 12 -6 27 -20
34 -32z m-255 14 c16 -17 19 -38 19 -126 1 -99 0 -107 -23 -125 -30 -24 -62
-24 -92 0 -22 17 -23 26 -23 125 1 88 4 109 19 126 24 27 76 26 100 0z m491
-1 c16 -18 18 -40 20 -192 1 -95 2 -176 3 -180 0 -4 18 -15 39 -24 57 -24 178
-13 269 25 81 34 319 112 383 127 357 78 599 101 845 80 74 -6 186 -22 215
-30 8 -2 31 -7 50 -10 113 -19 303 -88 430 -157 183 -99 693 -476 1301 -960
252 -201 270 -220 246 -265 -18 -33 -58 -48 -86 -33 -9 4 -122 92 -251 195
-356 282 -760 592 -915 701 -11 8 -47 34 -80 57 -317 229 -533 320 -844 355
-86 9 -374 9 -476 -1 -225 -22 -507 -88 -732 -173 -134 -51 -194 -64 -282 -60
-126 5 -202 44 -238 120 -15 34 -18 66 -18 222 0 165 2 184 19 203 25 28 77
28 102 0z"/>
<path d="M1953 2293 c-12 -2 -36 -20 -53 -39 -24 -28 -30 -44 -30 -81 0 -43 4
-51 49 -92 63 -59 192 -136 306 -182 209 -84 408 -105 604 -63 53 11 177 58
200 76 13 10 28 18 34 18 5 0 38 21 73 46 l64 45 28 -19 c116 -81 333 -162
482 -178 254 -29 417 13 674 174 19 12 29 9 101 -32 126 -71 291 -127 425
-143 236 -28 453 24 634 150 62 43 63 44 87 27 100 -73 312 -154 459 -175 123
-19 305 -7 407 25 76 24 160 65 233 113 l75 50 40 -23 c142 -80 266 -129 391
-155 87 -18 259 -26 314 -14 19 4 51 10 71 13 136 21 342 136 448 252 34 36
41 51 41 83 0 22 -5 51 -11 65 -13 28 -80 66 -107 61 -9 -2 -24 -4 -33 -4 -8
-1 -33 -17 -55 -37 -251 -232 -521 -263 -860 -97 -51 24 -109 60 -130 80 -51
47 -65 53 -116 53 -51 0 -65 -8 -152 -81 -256 -216 -570 -206 -930 30 -64 41
-86 51 -120 50 -53 -1 -64 -6 -117 -53 -132 -116 -255 -170 -414 -181 -162
-12 -368 58 -558 188 -56 39 -76 47 -113 47 -55 0 -65 -5 -129 -65 -145 -136
-357 -197 -552 -160 -140 27 -299 97 -416 184 -89 65 -135 61 -227 -21 -255
-228 -604 -231 -936 -10 -113 75 -134 83 -181 75z"/>
<path d="M3149 1504 c-50 -20 -74 -65 -70 -131 3 -56 157 -169 331 -244 332
-143 664 -120 931 64 l67 45 53 -32 c372 -223 776 -227 1086 -11 l64 45 27
-19 c67 -46 233 -121 332 -147 290 -79 565 -34 794 130 78 56 156 139 157 168
4 54 -2 73 -32 104 -58 60 -113 51 -214 -36 -128 -110 -263 -163 -415 -164
-118 -1 -157 5 -271 44 -100 33 -169 69 -275 141 -56 39 -79 49 -111 49 -42 0
-56 -8 -158 -91 -76 -62 -195 -120 -275 -135 -208 -37 -433 23 -654 174 -74
51 -82 54 -127 50 -40 -4 -56 -13 -106 -57 -90 -82 -213 -145 -328 -169 -16
-3 -75 -6 -130 -5 -112 0 -212 23 -323 74 -62 28 -211 115 -222 129 -22 30
-86 41 -131 24z"/>
</g>
</svg>
